<?xml version="1.0" standalone="no"?>
<svg viewBox="0 0 200 200" xmlns="http://www.w3.org/2000/svg">
  <path fill="#FF0000" d="M47.6,-76.7C61.8,-74.2,73.6,-61.7,75.7,-47.3C77.8,-32.9,70.2,-16.4,68.1,-1.2C66,14,69.3,28,66.2,40.6C63,53.3,53.4,64.6,41.3,67.3C29.2,70,14.6,64.1,2.2,60.4C-10.3,56.7,-20.6,55.1,-34.7,53.5C-48.7,51.9,-66.6,50.3,-73.2,41.4C-79.8,32.5,-75.3,16.2,-74.2,0.6C-73.1,-15,-75.4,-29.9,-69,-39.3C-62.6,-48.6,-47.5,-52.4,-34.5,-55.6C-21.6,-58.9,-10.8,-61.7,2.9,-66.8C16.7,-71.8,33.3,-79.2,47.6,-76.7Z" transform="translate(100 100)" />
</svg>
