<!--?xml version="1.0" standalone="no"?-->
              <svg id="sw-js-blob-svg" viewBox="0 0 100 100" xmlns="http://www.w3.org/2000/svg" version="1.1">
                    <defs> 
                        <linearGradient id="sw-gradient" x1="0" x2="1" y1="1" y2="0">
                            <stop id="stop1" stop-color="rgba(255, 8.728, 8.728, 1)" offset="0%"></stop>
                            <stop id="stop2" stop-color="rgba(251, 31, 31, 1)" offset="100%"></stop>
                        </linearGradient>
                    </defs>
                <path fill="url(#sw-gradient)" d="M15.8,-26.8C17.8,-26.3,14.8,-16.6,15.2,-10.6C15.6,-4.6,19.4,-2.3,21.8,1.4C24.1,5,25.1,10.1,23.9,14.6C22.6,19.1,19.1,23.1,14.8,22.5C10.4,22,5.2,17,0.3,16.5C-4.6,16,-9.2,20,-14.9,21.2C-20.5,22.5,-27.2,21,-30.9,17C-34.6,13,-35.4,6.5,-32.6,1.6C-29.7,-3.2,-23.2,-6.4,-21,-13.1C-18.8,-19.7,-20.9,-29.8,-18.1,-29.8C-15.3,-29.9,-7.7,-19.9,-0.4,-19.2C6.9,-18.6,13.8,-27.3,15.8,-26.8Z" width="100%" height="100%" transform="translate(50 50)" stroke-width="0" style="transition: 0.3s;"></path>
              </svg>