<!--?xml version="1.0" standalone="no"?-->
              <svg id="sw-js-blob-svg" viewBox="0 0 100 100" xmlns="http://www.w3.org/2000/svg" version="1.1">
                    <defs> 
                        <linearGradient id="sw-gradient" x1="0" x2="1" y1="1" y2="0">
                            <stop id="stop1" stop-color="rgba(248, 117, 55, 1)" offset="0%"></stop>
                            <stop id="stop2" stop-color="rgba(255, 0, 0, 1)" offset="100%"></stop>
                        </linearGradient>
                    </defs>
                <path fill="url(#sw-gradient)" d="M20,-32.8C24.7,-28.1,26.4,-20.5,30.1,-13.4C33.7,-6.4,39.4,0,39.6,6.4C39.7,12.7,34.4,18.9,29.1,25.4C23.8,31.9,18.6,38.7,11.8,41.2C5,43.7,-3.4,41.8,-9.4,37.6C-15.5,33.3,-19.3,26.6,-23.1,20.8C-27,15,-30.9,10,-34.1,3.5C-37.2,-3,-39.5,-11.1,-37.5,-17.8C-35.5,-24.6,-29.2,-30,-22.2,-33.7C-15.2,-37.4,-7.6,-39.4,0,-39.4C7.7,-39.4,15.3,-37.6,20,-32.8Z" width="100%" height="100%" transform="translate(50 50)" stroke-width="0" style="transition: 0.3s;" stroke="url(#sw-gradient)"></path>
              </svg>